<?xml version="1.0" standalone="no"?>
<!DOCTYPE svg PUBLIC "-//W3C//DTD SVG 20010904//EN"
 "http://www.w3.org/TR/2001/REC-SVG-20010904/DTD/svg10.dtd">
<svg version="1.0" xmlns="http://www.w3.org/2000/svg"
 width="353.000000pt" height="353.000000pt" viewBox="0 0 353.000000 353.000000"
 preserveAspectRatio="xMidYMid meet">
<metadata>
Created by potrace 1.11, written by Peter Selinger 2001-2013
</metadata>
<g transform="translate(0.000000,353.000000) scale(0.100000,-0.100000)"
fill="#000000" stroke="none">
<path d="M590 2636 c0 -358 3 -456 13 -457 44 -3 164 -4 173 -2 7 3 10 112 9
341 -1 185 1 343 3 349 2 7 14 11 26 8 11 -2 62 -12 111 -21 362 -66 590 -180
724 -362 l38 -52 36 42 c48 58 86 97 131 133 54 43 189 124 198 119 4 -3 8 -1
8 4 0 5 8 12 18 15 9 3 48 17 86 32 59 22 186 60 237 70 94 19 198 26 199 13
0 -5 0 -169 0 -365 l0 -358 -137 3 c-161 4 -248 -12 -362 -65 -65 -31 -146
-77 -161 -93 -3 -3 -22 -18 -42 -33 -20 -15 -58 -47 -85 -71 l-47 -43 -44 41
c-25 22 -50 46 -56 51 -63 60 -206 141 -321 184 l-70 25 -538 4 -538 3 2 -118
c7 -413 163 -813 426 -1094 43 -46 103 -115 132 -154 119 -156 330 -320 491
-382 168 -65 275 -87 420 -87 211 0 363 34 540 122 56 27 156 89 176 107 6 6
34 28 62 50 29 21 52 42 52 46 0 4 15 12 33 19 53 21 148 80 222 139 350 276
564 729 569 1201 l1 145 -263 5 -264 5 -3 435 c-2 239 -4 450 -4 468 l-1 32
-132 -5 c-73 -3 -142 -7 -153 -9 -11 -2 -41 -7 -67 -10 -66 -9 -218 -49 -308
-82 -125 -44 -314 -147 -403 -217 l-37 -30 -23 20 c-51 46 -205 138 -292 174
-100 41 -258 85 -390 108 -33 6 -69 13 -80 15 -106 20 -123 22 -232 31 l-83 7
0 -456z m2007 -558 c-2 -13 -4 -5 -4 17 -1 22 1 32 4 23 2 -10 2 -28 0 -40z
m0 -75 c-3 -10 -5 -2 -5 17 0 19 2 27 5 18 2 -10 2 -26 0 -35z m-1409 -37 c62
-7 199 -58 235 -86 14 -11 28 -20 32 -20 18 0 132 -100 215 -189 l94 -101 116
118 c127 130 222 200 332 242 88 34 140 42 281 44 l107 1 1 -300 c1 -525 1
-531 -45 -631 -82 -179 -244 -338 -453 -443 -35 -17 -71 -32 -80 -34 -10 -1
-23 -6 -29 -9 -6 -4 -31 -12 -55 -18 -24 -6 -53 -13 -64 -15 -38 -10 -130 -19
-185 -18 -77 0 -199 15 -217 26 -5 3 -23 9 -40 11 -16 3 -45 12 -64 20 -19 8
-38 15 -44 16 -20 3 -141 73 -200 115 -109 78 -246 233 -271 308 -4 9 -11 17
-16 17 -5 0 -6 5 -3 10 3 6 1 10 -6 10 -7 0 -10 3 -7 6 4 3 -1 22 -9 42 -24
57 -25 90 -26 492 l-1 375 -98 1 -98 0 -2 -335 -3 -336 -26 46 c-57 101 -117
262 -145 391 -9 43 -20 115 -29 200 -4 38 -1 47 12 50 30 6 737 0 791 -6z
m1956 -32 c-1 -133 -52 -341 -119 -495 -49 -111 -133 -245 -219 -346 -21 -24
-43 -32 -29 -10 8 13 10 22 16 84 3 23 8 46 12 52 3 6 0 11 -7 11 -9 0 -9 3
-2 8 12 8 14 590 1 609 -4 6 -3 14 1 17 11 7 9 46 -2 65 -7 10 -5 12 3 6 9 -5
12 -1 11 11 -1 11 -2 21 -1 24 0 3 76 5 168 4 l168 -1 -1 -39z"/>
</g>
</svg>
